<svg width="250" height="282" xmlns="http://www.w3.org/2000/svg" preserveAspectRatio="xMidYMid meet">
 <g>
  <rect fill="none" id="canvas_background" height="284" width="252" y="-1" x="-1"/>
 </g>
 <g>
  <g transform="translate(0, 512) scale(0.05, -0.05)" fill="#82ce26" id="svg_1">
   <path d="m2252.45455,10160.72766c-76,-40 -240,-134 -367,-209c-126,-75 -264,-152 -305,-171c-41,-20 -75,-43 -75,-52c0,-9 -9,-16 -19,-16c-11,0 -139,-70 -286,-156c-147,-86 -280,-162 -296,-169c-191,-82 -776,-458 -828,-532l-61,-86l-5,-1326l-6,-1325l56,-106c58,-112 290,-267 715,-480c343,-171 676,-155 874,42c161,161 157,120 151,1589l-5,1279l-150,0l-150,0l-10,-1240c-11,-1329 -6,-1272 -120,-1380c-154,-146 -318,-95 -945,295l-95,59l0,1235c0,1151 2,1237 35,1265c32,28 197,126 575,342c77,44 181,105 230,135c50,29 183,107 296,171c409,234 458,263 737,424c335,194 275,185 474,72c90,-51 202,-115 249,-141c47,-27 185,-107 307,-178c122,-71 225,-129 229,-129c4,0 55,-30 113,-67c58,-37 150,-92 205,-122c55,-29 132,-72 170,-95c274,-160 545,-317 625,-363l95,-55l0,-1246c0,-1161 -2,-1248 -35,-1277c-19,-17 -129,-84 -245,-149c-115,-65 -246,-141 -290,-169c-44,-27 -161,-93 -260,-147c-99,-53 -183,-104 -187,-113c-3,-10 -14,-17 -24,-17c-15,0 -288,-153 -469,-263c-33,-20 -100,-58 -150,-84c-49,-27 -184,-104 -298,-172l-208,-122l-76,50c-43,28 -82,51 -89,51c-6,0 -58,30 -115,66c-57,37 -150,92 -206,122l-103,56l-107,-49c-60,-27 -141,-61 -182,-76c-88,-31 -83,-44 40,-110c102,-54 118,-64 470,-273c347,-207 401,-203 834,55c61,36 148,86 193,112c46,26 177,101 290,166c114,66 324,186 467,269c143,82 319,183 390,224c72,42 184,104 250,140c466,247 433,116 435,1706c2,1535 15,1461 -298,1621c-42,22 -124,69 -182,105c-58,36 -109,66 -114,66c-6,0 -241,133 -351,199c-16,10 -192,112 -390,227c-198,115 -445,259 -550,320c-525,309 -612,329 -853,202z" id="svg_2"/>
   <path d="m2760.45455,8492.72766c-232,-37 -555,-240 -555,-348c0,-16 -11,-32 -25,-37c-17,-6 -27,-71 -32,-209c-14,-423 187,-569 888,-645c606,-66 807,-171 747,-389c-55,-199 -256,-292 -631,-292c-463,0 -672,103 -733,361l-23,99l-169,0l-168,0l11,-117c40,-442 368,-642 1055,-643c711,0 1025,211 1022,687c-3,385 -182,509 -882,613c-346,52 -408,62 -488,79c-218,49 -272,98 -272,244c0,126 78,212 240,265c107,35 640,46 640,12c0,-8 25,-20 55,-26c93,-19 218,-144 262,-260l38,-104l156,-6c191,-7 193,-4 157,154c-106,455 -602,671 -1293,562z" id="svg_3"/>
  </g>
 </g>
</svg>